<?xml version="1.0" encoding="utf-8"?>
<!-- Svg Vector Icons : http://www.onlinewebfonts.com/icon -->
<!DOCTYPE svg PUBLIC "-//W3C//DTD SVG 1.1//EN" "http://www.w3.org/Graphics/SVG/1.1/DTD/svg11.dtd">
<svg version="1.1" xmlns="http://www.w3.org/2000/svg" xmlns:xlink="http://www.w3.org/1999/xlink" x="0px" y="0px" viewBox="0 0 1000 1000" enable-background="new 0 0 1000 1000" xml:space="preserve">
<metadata> Svg Vector Icons : http://www.onlinewebfonts.com/icon </metadata>
<g><path d="M949.2,459.2H745c-22.5,0-40.8,18.4-40.8,40.8s18.4,40.8,40.8,40.8h204.2c22.5,0,40.8-18.4,40.8-40.8S971.6,459.2,949.2,459.2z"/><path d="M295.8,500c0-22.5-18.4-40.8-40.8-40.8H50.8C28.4,459.2,10,477.5,10,500s18.4,40.8,40.8,40.8H255C277.5,540.8,295.8,522.5,295.8,500z"/><path d="M500,704.2c-22.5,0-40.8,18.4-40.8,40.8v204.2c0,22.5,18.4,40.8,40.8,40.8s40.8-18.4,40.8-40.8V745C540.8,722.5,522.5,704.2,500,704.2z"/><path d="M500,10c-22.5,0-40.8,18.4-40.8,40.8V255c0,22.5,18.4,40.8,40.8,40.8s40.8-18.4,40.8-40.8V50.8C540.8,28.4,522.5,10,500,10z"/><path d="M676.9,397.9c11.2,19.7,36.2,26.3,55.9,15.1l176.9-102.1c19.7-11.2,26.3-36.2,15.1-55.9c-11.2-19.7-36.2-26.3-55.9-15.1L691.9,342C672.3,353.5,665.6,378.3,676.9,397.9z"/><path d="M323.1,602.1c-11.2-19.7-36.2-26.3-55.9-15.1L90.4,689.1c-19.7,11.2-26.3,36.2-15.1,55.9c11.2,19.7,36.2,26.3,55.9,15.1L308.1,658C327.7,646.5,334.4,621.7,323.1,602.1z"/><path d="M658,691.7c-11.2-19.7-36.2-26.3-55.9-15.1c-19.7,11.2-26.3,36.2-15.1,55.9l102.1,176.9c11.2,19.7,36.2,26.3,55.9,15.1s26.3-36.2,15.1-55.9L658,691.7z"/><path d="M310.9,90.6C299.7,71,274.7,64.4,255,75.6c-19.7,11.2-26.3,36.2-15.1,55.9L342,308.3c11.2,19.7,36.2,26.3,55.9,15.1c19.7-11.2,26.3-36.2,15.1-55.9L310.9,90.6z"/><path d="M602.1,323.1c19.7,11.2,44.4,4.6,55.9-15.1l102.1-176.9c11.2-19.7,4.6-44.4-15.1-55.9c-19.7-11.2-44.4-4.6-55.9,15.1L587,267.3C575.8,286.9,582.4,311.9,602.1,323.1z"/><path d="M397.9,676.9c-19.7-11.2-44.4-4.6-55.9,15.1L239.9,868.8c-11.2,19.7-4.6,44.4,15.1,55.9c19.7,11.2,44.4,4.6,55.9-15.1L413,732.8C424.2,713.1,417.6,688.1,397.9,676.9z"/><path d="M909.4,689.1L732.5,587c-19.7-11.2-44.4-4.6-55.9,15.1c-11.2,19.7-4.6,44.4,15.1,55.9l176.9,102.1c19.7,11.2,44.4,4.6,55.9-15.1C935.6,725.3,929,700.6,909.4,689.1z"/><path d="M90.6,310.9L267.5,413c19.7,11.2,44.4,4.6,55.9-15.1c11.5-19.7,4.6-44.4-15.1-55.9L131.5,239.9c-19.7-11.2-44.4-4.6-55.9,15.1C64.4,274.7,71,299.4,90.6,310.9z"/></g>
</svg>